<?xml version="1.0" encoding="UTF-8"?>
<svg version="1.1" xmlns="http://www.w3.org/2000/svg" width="200" height="200">
<path d="M0 0 C2.7770316 0.98265407 4.14082411 2.01772172 6.22187996 4.08456993 C7.26929863 5.11073418 7.26929863 5.11073418 8.33787727 6.15762901 C9.0882325 6.91293907 9.83858772 7.66824913 10.61168098 8.44644737 C11.8148748 9.6343084 11.8148748 9.6343084 13.04237556 10.84616661 C15.69261629 13.4685901 18.3277175 16.10563119 20.96177864 18.74429893 C22.79504641 20.56979577 24.62876217 22.39484281 26.46290779 24.21945763 C30.30451735 28.04613842 34.1384035 31.88033966 37.96714973 35.71988487 C42.39477911 40.15960946 46.84047935 44.58062975 51.29538 48.992975 C55.58075127 53.23890736 59.84930987 57.50131971 64.11148643 61.77055168 C65.92735321 63.58538905 67.74797568 65.39548054 69.57333183 67.20077324 C72.11888108 69.72175547 74.64474426 72.26094037 77.16636848 74.80582237 C77.92886909 75.55303551 78.69136971 76.30024864 79.47697639 77.0701046 C80.15833656 77.76549339 80.83969673 78.46088219 81.54170418 79.17734337 C82.14082808 79.77613178 82.73995197 80.3749202 83.35723114 80.99185371 C84.50084114 82.88492393 84.50084114 82.88492393 84.30395126 85.4740696 C83.25454786 88.62427114 81.66030101 90.11907425 79.25084114 92.38492393 C78.48255989 93.11711143 77.71427864 93.84929893 76.92271614 94.60367393 C76.12349739 95.35648643 75.32427864 96.10929893 74.50084114 96.88492393 C72.82885819 98.54625731 71.1624032 100.21316825 69.50084114 101.88492393 C58.50084114 112.88492393 58.50084114 112.88492393 56.15977669 115.22003746 C53.50536148 117.88039347 50.86985203 120.55808708 48.23912239 123.24185753 C43.17545892 128.4031483 38.09688006 133.5494826 33.0093708 138.6872673 C29.93827422 141.78981102 26.87309319 144.89778147 23.82017708 148.01822472 C20.85785782 151.04561541 17.88122212 154.05821648 14.8939991 157.06102943 C13.75960421 158.20651386 12.6305054 159.35726815 11.5068531 160.51329231 C9.93904334 162.12451414 8.35359378 163.71611228 6.76255989 165.30435753 C5.86496956 166.21527153 4.96737923 167.12618553 4.04258919 168.06470299 C1.50084114 169.88492393 1.50084114 169.88492393 -0.92545319 169.69866562 C-3.8057356 168.787992 -5.08995192 167.80098024 -7.22019768 165.68527794 C-7.91847679 165.00116844 -8.61675591 164.31705894 -9.33619499 163.61221886 C-10.08655022 162.8569088 -10.83690544 162.10159874 -11.6099987 161.3234005 C-12.41212791 160.53149315 -13.21425713 159.7395858 -14.04069328 158.92368126 C-16.690934 156.30125777 -19.32603521 153.66421668 -21.96009636 151.02554893 C-23.79336413 149.2000521 -25.62707989 147.37500506 -27.46122551 145.55039024 C-31.30283507 141.72370945 -35.13672122 137.88950821 -38.96546745 134.049963 C-43.39309683 129.61023841 -47.83879707 125.18921812 -52.29369771 120.77687287 C-56.57906899 116.53094051 -60.84762758 112.26852816 -65.10980415 107.99929619 C-66.92567093 106.18445882 -68.7462934 104.37436733 -70.57164955 102.56907463 C-73.11719879 100.0480924 -75.64306198 97.5089075 -78.1646862 94.9640255 C-78.92718681 94.21681236 -79.68968742 93.46959923 -80.47529411 92.69974327 C-81.15665428 92.00435448 -81.83801445 91.30896568 -82.5400219 90.5925045 C-83.13914579 89.99371609 -83.73826969 89.39492767 -84.35554886 88.77799416 C-85.49915886 86.88492393 -85.49915886 86.88492393 -85.38408279 84.38576508 C-84.40142872 81.60873348 -83.36636108 80.24494096 -81.29951286 78.16388512 C-80.27334862 77.11646645 -80.27334862 77.11646645 -79.22645378 76.0478878 C-78.47114372 75.29753258 -77.71583366 74.54717735 -76.93763542 73.77408409 C-75.7497744 72.57089027 -75.7497744 72.57089027 -74.53791618 71.34338951 C-71.91549269 68.69314879 -69.2784516 66.05804758 -66.63978386 63.42398643 C-64.81428703 61.59071867 -62.98923999 59.75700291 -61.16462517 57.92285728 C-57.33794437 54.08124772 -53.50374313 50.24736157 -49.66419792 46.41861534 C-45.22447333 41.99098597 -40.80345305 37.54528573 -36.3911078 33.09038508 C-32.14517543 28.80501381 -27.88276308 24.53645521 -23.61353111 20.27427864 C-21.79869374 18.45841187 -19.98860226 16.63778939 -18.18330956 14.81243324 C-15.66232732 12.266884 -13.12314243 9.74102082 -10.57826042 7.21939659 C-9.83104729 6.45689598 -9.08383415 5.69439537 -8.3139782 4.90878868 C-7.6185894 4.22742851 -6.92320061 3.54606834 -6.20673943 2.8440609 C-5.60795101 2.244937 -5.0091626 1.6458131 -4.39222908 1.02853394 C-2.49915886 -0.11507607 -2.49915886 -0.11507607 0 0 Z M-1.49915886 4.88492393 C-1.82915886 5.87492393 -2.15915886 6.86492393 -2.49915886 7.88492393 C-3.82397134 8.56836678 -5.15854382 9.23302398 -6.49915886 9.88492393 C-8.2286636 11.58351797 -8.2286636 11.58351797 -9.82082939 13.57449913 C-13.1655489 17.52266164 -16.68395612 21.20552629 -20.35243034 24.85172081 C-20.99718819 25.49662468 -21.64194603 26.14152855 -22.30624199 26.80597496 C-24.40854704 28.90759107 -26.51435663 31.00565663 -28.62025261 33.10367393 C-30.09020342 34.57175694 -31.55993158 36.04006291 -33.02944756 37.50858116 C-36.87571831 41.3510553 -40.72498392 45.19051533 -44.57490349 49.02933311 C-48.51177226 52.95592605 -52.44577017 56.88539299 -56.38001823 60.81461143 C-64.08360807 68.50751437 -71.79036821 76.19723281 -79.49915886 83.88492393 C-78.22241826 86.68372838 -76.90354373 88.72828037 -74.72421074 90.89365196 C-74.15941505 91.45975182 -73.59461937 92.02585167 -73.01270866 92.60910606 C-72.39504631 93.21800682 -71.77738396 93.82690758 -71.14100456 94.45425987 C-70.48871376 95.10523643 -69.83642296 95.756213 -69.16436577 96.42691612 C-67.00578115 98.57900805 -64.84030992 100.72403608 -62.67494011 102.86929893 C-61.16948238 104.36848301 -59.66454081 105.86818557 -58.16009331 107.36838341 C-54.19349079 111.32167507 -50.22137071 115.26937225 -46.24763298 119.21549034 C-39.90417029 125.51588023 -33.56728855 131.82286982 -27.23379898 138.13328362 C-25.02780811 140.32911681 -22.81839689 142.5214639 -20.60861015 144.71347618 C-19.24038269 146.07486747 -17.87226875 147.43637287 -16.50428581 148.79800987 C-15.89674461 149.39881371 -15.28920341 149.99961754 -14.66325188 150.61862755 C-10.40178348 154.86893861 -6.41309985 159.3134448 -2.49915886 163.88492393 C0.66544699 163.30543051 2.29648427 162.46181345 4.55426216 160.18553734 C5.13022133 159.612257 5.7061805 159.03897667 6.29959297 158.4483242 C6.91941551 157.81614479 7.53923805 157.18396538 8.17784309 156.53262901 C8.84017952 155.86912437 9.50251595 155.20561974 10.18492317 154.5220089 C12.3766958 152.32303927 14.55775658 150.11374459 16.73912239 147.90445518 C18.26290394 146.37253551 19.78742541 144.8413515 21.3126545 143.31087303 C25.33267014 139.27371869 29.34404752 135.22809349 33.35325813 131.18021202 C39.75751611 124.71684662 46.17432312 118.26594751 52.59189606 111.81580734 C54.82745818 109.56634733 57.05911925 107.31307452 59.29022408 105.05919456 C60.67194636 103.66743929 62.05375252 102.27576728 63.43565559 100.88419151 C64.04940544 100.26213326 64.66315529 99.640075 65.29550362 98.99916649 C68.7187835 95.55854339 72.22150722 92.36349037 76.02266407 89.34198093 C77.71114344 87.67762642 78.55288541 86.04372349 79.50084114 83.88492393 C78.84084114 83.88492393 78.18084114 83.88492393 77.50084114 83.88492393 C77.11472664 82.99244957 77.11472664 82.99244957 76.72081184 82.08194542 C75.3900878 79.68547039 74.09369108 78.46089207 71.98130989 76.73258018 C66.99950521 72.51339993 62.4165461 67.94742781 57.81334114 63.32242393 C56.98511848 62.49806847 56.15689583 61.673713 55.30357552 60.82437706 C51.90312499 57.41848146 48.55497278 54.05379651 45.54380989 50.29508018 C44.8696302 49.49972862 44.19545052 48.70437706 43.50084114 47.88492393 C42.84084114 47.88492393 42.18084114 47.88492393 41.50084114 47.88492393 C41.19146614 47.04961143 41.19146614 47.04961143 40.87584114 46.19742393 C39.36520102 43.65680192 37.56225939 42.11984897 35.23130989 40.32633018 C33.39903374 38.80012274 31.72974768 37.15403413 30.05577278 35.4574337 C28.15774949 33.53795372 26.23925706 31.63980569 24.32115364 29.74039268 C22.75598799 28.18446495 21.19088544 26.62847373 19.62584114 25.07242393 C18.84853645 24.30349815 18.07123177 23.53457237 17.27037239 22.74234581 C13.00783146 18.49771472 8.90702608 14.18370824 5.00425911 9.60489464 C3.55538742 7.94732707 2.14539777 6.3500897 0.50084114 4.88492393 C-0.15915886 4.88492393 -0.81915886 4.88492393 -1.49915886 4.88492393 Z " fill="#2C84C8" transform="translate(100.49915885925293,15.115076065063477)"/>
<path d="M0 0 C4.31356813 0.69573679 4.64906685 0.9940525 7.1875 4.25 C8.42588158 6.03530983 9.65369212 7.82796711 10.875 9.625 C11.76894619 10.80908367 12.66906215 11.98852626 13.57421875 13.1640625 C14.50848262 14.40053562 15.44207825 15.63751393 16.375 16.875 C16.83302002 17.46490723 17.29104004 18.05481445 17.76293945 18.66259766 C19.03125 20.390625 19.03125 20.390625 20.875 23.625 C19.875 28.625 19.875 28.625 9.875 42.625 C23.735 42.955 37.595 43.285 51.875 43.625 C52.205 41.975 52.535 40.325 52.875 38.625 C53.875 37.625 53.875 37.625 56.3125 37.375 C57.158125 37.4575 58.00375 37.54 58.875 37.625 C61.11934537 40.99151805 61.07638902 41.84096988 60.8515625 45.73046875 C60.77421875 47.20483398 60.77421875 47.20483398 60.6953125 48.70898438 C60.63085938 49.73314453 60.56640625 50.75730469 60.5 51.8125 C60.41492188 53.36614258 60.41492188 53.36614258 60.328125 54.95117188 C60.18663334 57.50981271 60.03522134 60.06747484 59.875 62.625 C52.22148417 62.81824454 44.56772105 62.99573591 36.91357422 63.16210938 C34.30802072 63.22062461 31.70254658 63.28278939 29.09716797 63.34863281 C25.35919645 63.4424731 21.62113897 63.52332322 17.8828125 63.6015625 C16.12652023 63.64985703 16.12652023 63.64985703 14.33474731 63.6991272 C13.25377777 63.71929901 12.17280823 63.73947083 11.05908203 63.76025391 C10.10421906 63.78246002 9.14935608 63.80466614 8.16555786 63.82754517 C5.875 63.625 5.875 63.625 3.875 61.625 C5.02673355 59.15699953 5.92283565 57.57716435 7.875 55.625 C9.78591919 55.3465271 9.78591919 55.3465271 12.14111328 55.30615234 C13.02187531 55.28628265 13.90263733 55.26641296 14.81008911 55.24594116 C16.23827469 55.22861435 16.23827469 55.22861435 17.6953125 55.2109375 C19.15600662 55.18188828 19.15600662 55.18188828 20.64620972 55.1522522 C23.76405003 55.09235442 26.88192706 55.04603029 30 55 C32.11069341 54.96182961 34.22137108 54.92277844 36.33203125 54.8828125 C41.51288144 54.78664473 46.69382597 54.70162736 51.875 54.625 C51.875 53.635 51.875 52.645 51.875 51.625 C50.86688766 51.63499275 50.86688766 51.63499275 49.83840942 51.64518738 C42.86351287 51.71139426 35.88870509 51.75673952 28.91357422 51.78979492 C26.30806861 51.80491108 23.70258856 51.82540432 21.09716797 51.85131836 C17.35898544 51.88757688 13.62113835 51.90469798 9.8828125 51.91796875 C8.71195099 51.93345261 7.54108948 51.94893646 6.33474731 51.96488953 C5.25377777 51.96511612 4.17280823 51.96534271 3.05908203 51.96557617 C2.10421906 51.97223801 1.14935608 51.97889984 0.16555786 51.98576355 C-0.59032623 51.86671158 -1.34621033 51.74765961 -2.125 51.625 C-2.785 50.635 -3.445 49.645 -4.125 48.625 C-1.68359375 45.20703125 0.7578125 41.7890625 3.19921875 38.37109375 C3.63540527 37.75218262 4.0715918 37.13327148 4.52099609 36.49560547 C5.43562629 35.23201071 6.38263976 33.99132784 7.35791016 32.77392578 C10.07275633 29.34835049 10.07275633 29.34835049 11.0234375 25.1875 C9.29902106 21.3398225 6.95685817 18.03940289 4.5 14.625 C3.51172162 13.23008624 2.52471037 11.83427372 1.5390625 10.4375 C1.07661133 9.78394531 0.61416016 9.13039063 0.13769531 8.45703125 C-1.39049298 6.23979905 -2.78428367 3.95985294 -4.125 1.625 C-3.125 0.625 -3.125 0.625 0 0 Z " fill="#0F7FD8" transform="translate(72.125,74.375)"/>
<path d="M0 0 C7.81452752 -0.02526563 15.62904458 -0.04283105 23.44360352 -0.05493164 C26.10441481 -0.05997383 28.76522332 -0.06680736 31.42602539 -0.07543945 C35.24105516 -0.08751009 39.05604844 -0.09322929 42.87109375 -0.09765625 C44.66793861 -0.10539818 44.66793861 -0.10539818 46.50108337 -0.11329651 C48.15268211 -0.11340981 48.15268211 -0.11340981 49.83764648 -0.11352539 C50.81249496 -0.115746 51.78734344 -0.11796661 52.79173279 -0.12025452 C55 0 55 0 56 1 C56.08713831 2.70772358 56.10700007 4.41898649 56.09765625 6.12890625 C56.09443359 7.16337891 56.09121094 8.19785156 56.08789062 9.26367188 C56.07532227 10.8965918 56.07532227 10.8965918 56.0625 12.5625 C56.05798828 13.65498047 56.05347656 14.74746094 56.04882812 15.87304688 C56.03699826 18.58208495 56.02051543 21.29101599 56 24 C54.35 24.33 52.7 24.66 51 25 C48 21 48 21 49 7 C31.675 7.495 31.675 7.495 14 8 C14.33 8.66 14.66 9.32 15 10 C16.11242065 10.029729 16.11242065 10.029729 17.24731445 10.06005859 C20.60273834 10.15522928 23.95753286 10.26494094 27.3125 10.375 C28.47974609 10.4059375 29.64699219 10.436875 30.84960938 10.46875 C31.96787109 10.50742188 33.08613281 10.54609375 34.23828125 10.5859375 C35.26993408 10.6173584 36.30158691 10.6487793 37.36450195 10.68115234 C40 11 40 11 43 13 C42.67 14.65 42.34 16.3 42 18 C27.24590164 20.62295082 27.24590164 20.62295082 22 18 C24.50311018 23.36155146 27.71078407 27.68667165 31.35546875 32.31640625 C33.13397825 35.2186296 33.36757435 36.66772764 33 40 C32.34 40 31.68 40 31 40 C30.731875 40.556875 30.46375 41.11375 30.1875 41.6875 C29.795625 42.450625 29.40375 43.21375 29 44 C28.443125 45.36125 28.443125 45.36125 27.875 46.75 C26 49 26 49 24.02734375 49.31640625 C22.0154659 49.31285796 20.00515631 49.16435707 18 49 C18.46403202 45.98379188 19.28413215 44.60722909 21.125 42.0625 C23.26582371 39.24962114 23.26582371 39.24962114 22.78125 36.57250977 C21.96716974 33.8918961 20.9697722 32.07116132 19.375 29.77734375 C18.83705811 28.99681641 18.29911621 28.21628906 17.74487305 27.41210938 C17.16906494 26.59548828 16.59325684 25.77886719 16 24.9375 C15.41710205 24.09638672 14.8342041 23.25527344 14.23364258 22.38867188 C10.15890962 16.54282715 5.932755 10.83780883 1.51171875 5.25 C0 3 0 3 0 0 Z " fill="#1776D0" transform="translate(76,63)"/>
<path d="M0 0 C9.51890857 0.59493179 17.37133094 11.01451906 23.66015625 17.25390625 C24.15053312 17.73862837 24.64091 18.22335049 25.14614677 18.72276115 C27.73096217 21.2778451 30.3101716 23.838426 32.88452148 26.40405273 C35.54104519 29.04951698 38.21569284 31.67585326 40.89481449 34.29840183 C42.95942369 36.32583453 45.01056236 38.36649084 47.05819511 40.41105461 C48.0392676 41.38607611 49.02533778 42.35609566 50.01643562 43.32092476 C51.39484075 44.66530902 52.75277886 46.03058278 54.10961914 47.39672852 C54.88713028 48.16694839 55.66464142 48.93716827 56.4657135 49.73072815 C58 52 58 52 57.86131287 54.64512634 C56.73834791 57.71537027 55.12444575 59.26707751 52.75 61.5 C51.98171875 62.2321875 51.2134375 62.964375 50.421875 63.71875 C49.62265625 64.4715625 48.8234375 65.224375 48 66 C46.32801705 67.66133337 44.66156206 69.32824431 43 71 C32 82 32 82 29.65319824 84.34085083 C27.03125127 86.96867863 24.42810563 89.61367009 21.83007812 92.26513672 C16.86619074 97.32663221 11.88740588 102.37318754 6.89968109 107.41119194 C3.88911671 110.45320463 0.88447386 113.50064032 -2.10791016 116.56054688 C-5.01187362 119.52958494 -7.93015174 122.48382575 -10.85902405 125.42828751 C-11.97109147 126.55144354 -13.07786299 127.67986878 -14.17918396 128.8135643 C-15.71586406 130.39366122 -17.27016907 131.95410992 -18.83007812 133.51123047 C-20.14981628 134.85095413 -20.14981628 134.85095413 -21.49621582 136.21774292 C-24 138 -24 138 -26.67289734 137.90238953 C-29.80423342 136.68813932 -31.52239261 134.92864242 -33.86328125 132.52734375 C-34.74951172 131.62822266 -35.63574219 130.72910156 -36.54882812 129.80273438 C-37.9168457 128.38444336 -37.9168457 128.38444336 -39.3125 126.9375 C-40.25232276 125.97760179 -41.19306889 125.01860671 -42.13476562 124.06054688 C-44.43242024 121.71576088 -46.7202276 119.36215473 -49 117 C-48.01 116.505 -48.01 116.505 -47 116 C-46.505 115.01 -46.505 115.01 -46 114 C-44.16052663 115.78572252 -42.32842259 117.57802449 -40.5 119.375 C-39.71302734 120.13683594 -39.71302734 120.13683594 -38.91015625 120.9140625 C-37.56846819 122.23832604 -36.28004185 123.61605865 -35 125 C-35 125.66 -35 126.32 -35 127 C-34.01 127.33 -33.02 127.66 -32 128 C-30.3125 130.0625 -30.3125 130.0625 -29 132 C-25.8109568 131.41980538 -24.1841716 130.55571491 -21.91293335 128.26023865 C-21.32974838 127.67828735 -20.74656342 127.09633606 -20.14570618 126.49674988 C-19.51802841 125.8551442 -18.89035065 125.21353851 -18.24365234 124.55249023 C-17.57328445 123.87934784 -16.90291656 123.20620544 -16.2122345 122.51266479 C-13.99657025 120.28470811 -11.79149461 118.04655238 -9.5859375 115.80859375 C-8.05024792 114.26223175 -6.51374805 112.71667407 -4.97647095 111.17189026 C-0.93005134 107.10266778 3.10815549 103.02540355 7.14385986 98.94555664 C13.6096856 92.40958678 20.08298016 85.88109041 26.56544113 79.36161995 C28.83336031 77.07693054 31.09478898 74.78595049 33.35586548 72.49449158 C34.73779567 71.10210627 36.119974 69.70996716 37.50244141 68.31811523 C38.13416763 67.67448532 38.76589386 67.03085541 39.41676331 66.36772156 C40.9069743 64.8734179 42.44863862 63.43071665 44 62 C44.66 62 45.32 62 46 62 C46.37125 61.13375 46.37125 61.13375 46.75 60.25 C48.16683317 57.6997003 49.87627537 55.98214299 52 54 C51.195625 53.236875 50.39125 52.47375 49.5625 51.6875 C47 49 47 49 46 46 C44.67189202 45.32298344 43.33737351 44.65852434 42 44 C40.29208614 42.47765284 38.63554442 40.89691448 37.015625 39.28125 C35.61376953 37.88326172 35.61376953 37.88326172 34.18359375 36.45703125 C33.7026123 35.97186035 33.22163086 35.48668945 32.72607422 34.98681641 C31.24795152 33.49793661 29.75940089 32.02008349 28.26953125 30.54296875 C27.34011719 29.61097656 26.41070312 28.67898437 25.453125 27.71875 C24.59879883 26.86216797 23.74447266 26.00558594 22.86425781 25.12304688 C21 23 21 23 21 21 C19.68 20.34 18.36 19.68 17 19 C17 18.34 17 17.68 17 17 C16.34 17 15.68 17 15 17 C12.06211087 14.30693497 9.4964747 11.42633439 6.9375 8.375 C4.81418741 5.84567932 2.67147604 3.95223249 0 2 C0 1.34 0 0.68 0 0 Z " fill="#245ABB" transform="translate(127,46)"/>
<path d="M0 0 C0 0.99 0 1.98 0 3 C-1.66666667 4.66666667 -3.33333333 6.33333333 -5 8 C-5 8.99 -5 9.98 -5 11 C-5.66 11 -6.32 11 -7 11 C-7.09087891 12.07314453 -7.09087891 12.07314453 -7.18359375 13.16796875 C-8.27391255 16.9501751 -10.22618664 18.61979744 -13.0625 21.3125 C-13.98160156 22.19550781 -14.90070312 23.07851562 -15.84765625 23.98828125 C-16.91306641 24.98408203 -16.91306641 24.98408203 -18 26 C-16.4053323 29.97579609 -13.63194149 32.60334741 -10.61645508 35.53125 C-10.06835678 36.07160889 -9.52025848 36.61196777 -8.95555115 37.16870117 C-7.76814293 38.33848787 -6.57854144 39.50605152 -5.38700294 40.67163086 C-3.50365355 42.51554524 -1.62793483 44.36690303 0.24568176 46.22070312 C5.57236864 51.4893437 10.90865083 56.74810622 16.25952148 61.9921875 C19.53381228 65.20218524 22.79592079 68.42413926 26.0505619 71.65405273 C27.29435172 72.88354935 28.54280352 74.10834781 29.7958889 75.32836914 C31.54364168 77.03061679 33.27555429 78.74757284 35.00463867 80.46875 C35.52873322 80.97172607 36.05282776 81.47470215 36.59280396 81.99291992 C38.00773621 83.41992188 38.00773621 83.41992188 40 86 C39.70753479 88.20455933 39.70753479 88.20455933 39 90 C40.68585874 92.39810813 40.68585874 92.39810813 43.171875 94.6953125 C44.06390625 95.57574219 44.9559375 96.45617187 45.875 97.36328125 C46.82375 98.27464844 47.7725 99.18601562 48.75 100.125 C49.68328125 101.04410156 50.6165625 101.96320313 51.578125 102.91015625 C56.50997034 107.79312598 56.50997034 107.79312598 62 112 C58.05773469 111.47836795 56.09215604 110.59434282 53.27896118 107.800354 C52.58068207 107.11624451 51.88240295 106.43213501 51.16296387 105.72729492 C50.41260864 104.97198486 49.66225342 104.2166748 48.88916016 103.43847656 C48.08703094 102.64656921 47.28490173 101.85466187 46.45846558 101.03875732 C43.80822485 98.41633383 41.17312364 95.77929274 38.5390625 93.140625 C36.70579473 91.31512817 34.87207897 89.49008113 33.03793335 87.66546631 C29.19632379 83.83878551 25.36243764 80.00458427 21.53369141 76.16503906 C17.10606203 71.72531447 12.66036179 67.30429419 8.20546114 62.89194894 C3.92008987 58.64601657 -0.34846873 54.38360422 -4.61064529 50.11437225 C-6.42651207 48.29953488 -8.24713454 46.4894434 -10.07249069 44.6841507 C-12.61803994 42.16316846 -15.14390312 39.62398357 -17.66552734 37.07910156 C-18.42802795 36.33188843 -19.19052856 35.58467529 -19.97613525 34.81481934 C-20.65749542 34.11943054 -21.33885559 33.42404175 -22.04086304 32.70758057 C-22.63998693 32.10879215 -23.23911083 31.51000374 -23.85639 30.89307022 C-25 29 -25 29 -24.82973671 26.44144821 C-23.63410325 22.92337176 -21.27169153 20.77703454 -18.65234375 18.26171875 C-18.12105362 17.73608841 -17.58976349 17.21045807 -17.04237366 16.66889954 C-15.34993418 14.99877952 -13.64410004 13.34313523 -11.9375 11.6875 C-10.78489427 10.55496492 -9.63319058 9.42151101 -8.48242188 8.28710938 C-5.66528879 5.51398469 -2.83606272 2.75375707 0 0 Z " fill="#3E9CCE" transform="translate(40,73)"/>
<path d="M0 0 C4.31356813 0.69573679 4.64906685 0.9940525 7.1875 4.25 C8.42588158 6.03530983 9.65369212 7.82796711 10.875 9.625 C11.76894619 10.80908367 12.66906215 11.98852626 13.57421875 13.1640625 C14.50848262 14.40053562 15.44207825 15.63751393 16.375 16.875 C16.83302002 17.46490723 17.29104004 18.05481445 17.76293945 18.66259766 C19.03125 20.390625 19.03125 20.390625 20.875 23.625 C19.875 28.625 19.875 28.625 9.875 42.625 C23.735 42.955 37.595 43.285 51.875 43.625 C52.205 44.285 52.535 44.945 52.875 45.625 C46.48462769 45.65027062 40.09426817 45.66783317 33.70385742 45.67993164 C31.52807127 45.68497308 29.35228853 45.69180607 27.17651367 45.70043945 C24.05646933 45.71251338 20.93646962 45.71823005 17.81640625 45.72265625 C16.83724747 45.72781754 15.85808868 45.73297882 14.84925842 45.73829651 C13.49797096 45.73840981 13.49797096 45.73840981 12.11938477 45.73852539 C11.32218521 45.740746 10.52498566 45.74296661 9.70362854 45.74525452 C7.875 45.625 7.875 45.625 6.875 44.625 C4.45962162 44.20782721 4.45962162 44.20782721 1.875 44.625 C0.885 45.945 -0.105 47.265 -1.125 48.625 C16.365 48.955 33.855 49.285 51.875 49.625 C51.875 49.955 51.875 50.285 51.875 50.625 C44.22164956 50.8435279 36.56796295 51.03857081 28.91357422 51.21704102 C26.3079667 51.28059638 23.70248611 51.3495927 21.09716797 51.42407227 C17.359247 51.52999661 13.62131095 51.61655207 9.8828125 51.69921875 C8.71195099 51.73657639 7.54108948 51.77393402 6.33474731 51.81242371 C5.25377777 51.83267105 4.17280823 51.8529184 3.05908203 51.8737793 C1.62678757 51.91041939 1.62678757 51.91041939 0.16555786 51.94779968 C-0.59032623 51.84127579 -1.34621033 51.73475189 -2.125 51.625 C-2.785 50.635 -3.445 49.645 -4.125 48.625 C-1.68359375 45.20703125 0.7578125 41.7890625 3.19921875 38.37109375 C3.63540527 37.75218262 4.0715918 37.13327148 4.52099609 36.49560547 C5.43562629 35.23201071 6.38263976 33.99132784 7.35791016 32.77392578 C10.07275633 29.34835049 10.07275633 29.34835049 11.0234375 25.1875 C9.29902106 21.3398225 6.95685817 18.03940289 4.5 14.625 C3.51172162 13.23008624 2.52471037 11.83427372 1.5390625 10.4375 C1.07661133 9.78394531 0.61416016 9.13039063 0.13769531 8.45703125 C-1.39049298 6.23979905 -2.78428367 3.95985294 -4.125 1.625 C-3.125 0.625 -3.125 0.625 0 0 Z " fill="#1C6FCA" transform="translate(72.125,74.375)"/>
<path d="M0 0 C3.63 0.33 7.26 0.66 11 1 C10.34 3.64 9.68 6.28 9 9 C17.89575224 12.6719567 26.56900882 12.29540228 36 12 C35.67 13.65 35.34 15.3 35 17 C30.17247654 18.24581251 23.59543291 19.29771645 19 17 C21.50311018 22.36155146 24.71078407 26.68667165 28.35546875 31.31640625 C30.13397825 34.2186296 30.36757435 35.66772764 30 39 C29.34 39 28.68 39 28 39 C27.731875 39.556875 27.46375 40.11375 27.1875 40.6875 C26.795625 41.450625 26.40375 42.21375 26 43 C25.443125 44.36125 25.443125 44.36125 24.875 45.75 C23 48 23 48 21.02734375 48.31640625 C19.0154659 48.31285796 17.00515631 48.16435707 15 48 C15.46403202 44.98379188 16.28413215 43.60722909 18.125 41.0625 C20.26135183 38.25252368 20.26135183 38.25252368 19.79443359 35.59008789 C18.93786906 32.79743481 17.83464221 30.88607299 16.1640625 28.49609375 C15.59429687 27.67302734 15.02453125 26.84996094 14.4375 26.00195312 C13.839375 25.15568359 13.24125 24.30941406 12.625 23.4375 C12.03460938 22.58736328 11.44421875 21.73722656 10.8359375 20.86132812 C7.67564742 16.31990964 7.67564742 16.31990964 4.36547852 11.88793945 C1.82693386 8.37809397 1.14186213 4.13245343 0 0 Z " fill="#0A98F5" transform="translate(79,64)"/>
<path d="M0 0 C0 5.94 0 11.88 0 18 C-8.25 18 -16.5 18 -25 18 C-25.495 16.515 -25.495 16.515 -26 15 C-19.07 15 -12.14 15 -5 15 C-4.67 12.69 -4.34 10.38 -4 8 C-22.48 7.67 -40.96 7.34 -60 7 C-57 2 -57 2 -56 1 C-53.5 0.875 -53.5 0.875 -51 1 C-50.67 1.33 -50.34 1.66 -50 2 C-48.63470486 2.10311197 -47.26418607 2.13848916 -45.89501953 2.14526367 C-44.58828781 2.15483345 -44.58828781 2.15483345 -43.25515747 2.16459656 C-41.83334671 2.16626579 -41.83334671 2.16626579 -40.3828125 2.16796875 C-38.93066849 2.17296135 -38.93066849 2.17296135 -37.44918823 2.17805481 C-35.39630612 2.18312878 -33.34341572 2.18546299 -31.29052734 2.18530273 C-28.14536956 2.18748586 -25.00056424 2.20562738 -21.85546875 2.22460938 C-19.86458454 2.22754383 -17.87369865 2.22952828 -15.8828125 2.23046875 C-14.93898712 2.23765427 -13.99516174 2.24483978 -13.0227356 2.25224304 C-11.70654739 2.2476281 -11.70654739 2.2476281 -10.36376953 2.24291992 C-9.5917923 2.24434494 -8.81981506 2.24576996 -8.02444458 2.24723816 C-4.75860309 1.84839265 -3.48057777 0 0 0 Z " fill="#0965E9" transform="translate(130,117)"/>
<path d="M0 0 C2.475 0.99 2.475 0.99 5 2 C-0.7333205 8.83418849 -6.87580866 15.20133008 -13.14086914 21.54589844 C-14.43001167 22.85682422 -15.71283995 24.17398718 -16.98950195 25.49707031 C-18.84466983 27.41884125 -20.71851341 29.32045202 -22.59765625 31.21875 C-23.44941185 32.11225159 -23.44941185 32.11225159 -24.31837463 33.02380371 C-28.27556351 36.96069213 -28.27556351 36.96069213 -31.59619141 37.14086914 C-34.63630309 35.69800484 -36.51261418 33.93867319 -38.86328125 31.52734375 C-40.19262695 30.17866211 -40.19262695 30.17866211 -41.54882812 28.80273438 C-42.46083984 27.85720703 -43.37285156 26.91167969 -44.3125 25.9375 C-45.25232276 24.97760179 -46.19306889 24.01860671 -47.13476562 23.06054688 C-49.43242024 20.71576088 -51.7202276 18.36215473 -54 16 C-53.34 15.67 -52.68 15.34 -52 15 C-51.67 14.34 -51.34 13.68 -51 13 C-49.16052663 14.78572252 -47.32842259 16.57802449 -45.5 18.375 C-44.97535156 18.88289063 -44.45070313 19.39078125 -43.91015625 19.9140625 C-42.56846819 21.23832604 -41.28004185 22.61605865 -40 24 C-40 24.66 -40 25.32 -40 26 C-39.01 26.33 -38.02 26.66 -37 27 C-35.3125 29.0625 -35.3125 29.0625 -34 31 C-30.7351256 30.41799126 -29.11126021 29.4813186 -26.79199219 27.13256836 C-26.19167175 26.53202133 -25.59135132 25.9314743 -24.97283936 25.31272888 C-24.33727112 24.66167679 -23.70170288 24.01062469 -23.046875 23.33984375 C-22.05654266 22.34314415 -22.05654266 22.34314415 -21.04620361 21.3263092 C-18.9403236 19.20364437 -16.84511672 17.07078395 -14.75 14.9375 C-13.32360768 13.49606066 -11.8965323 12.05529691 -10.46875 10.61523438 C-6.97119406 7.08461168 -3.48317435 3.54480947 0 0 Z " fill="#2E6EBA" transform="translate(132,147)"/>
<path d="M0 0 C2.87637688 0.83587596 4.03396732 1.69588558 6.11413574 3.8092041 C6.75442215 4.44979263 7.39470856 5.09038116 8.05439758 5.75038147 C8.72855209 6.44518112 9.4027066 7.13998077 10.09729004 7.85583496 C10.80048874 8.56469345 11.50368744 9.27355194 12.22819519 10.00389099 C14.46886975 12.2669304 16.69522651 14.54348802 18.92150879 16.82067871 C20.4394655 18.35870009 21.95833537 19.89582078 23.47814941 21.43200684 C27.19908961 25.19701588 30.90837376 28.97321561 34.60900879 32.75817871 C33.61900879 32.75817871 32.62900879 32.75817871 31.60900879 32.75817871 C30.94900879 32.09817871 30.28900879 31.43817871 29.60900879 30.75817871 C28.81994141 30.78331543 28.03087402 30.80845215 27.21789551 30.83435059 C23.89893025 30.73744649 23.14222872 29.89005117 20.86682129 27.53942871 C20.1926416 26.85364746 19.51846191 26.16786621 18.82385254 25.46130371 C18.1342041 24.73427246 17.44455566 24.00724121 16.73400879 23.25817871 C15.7111377 22.21403809 15.7111377 22.21403809 14.66760254 21.14880371 C10.67675534 17.04393231 6.88796667 12.82156699 3.24523926 8.40466309 C1.4931044 6.64154797 -0.12120727 5.73737374 -2.39099121 4.75817871 C-2.84989746 5.30087402 -3.30880371 5.84356934 -3.78161621 6.40270996 C-4.39520996 7.11813965 -5.00880371 7.83356934 -5.64099121 8.57067871 C-6.24427246 9.27837402 -6.84755371 9.98606934 -7.46911621 10.71520996 C-9.31469519 12.67707542 -11.19044453 14.21487496 -13.39099121 15.75817871 C-13.39099121 15.09817871 -13.39099121 14.43817871 -13.39099121 13.75817871 C-14.05099121 13.42817871 -14.71099121 13.09817871 -15.39099121 12.75817871 C-13.34607227 10.55158243 -11.28292685 8.36932826 -9.20349121 6.19567871 C-8.33627441 5.25305176 -8.33627441 5.25305176 -7.45153809 4.29138184 C-6.59592285 3.4067627 -6.59592285 3.4067627 -5.72302246 2.50427246 C-5.20457764 1.95440674 -4.68613281 1.40454102 -4.15197754 0.8380127 C-2.39099121 -0.24182129 -2.39099121 -0.24182129 0 0 Z " fill="#2A6EC7" transform="translate(101.3909912109375,16.2418212890625)"/>
<path d="M0 0 C2.77960675 1.27330589 4.85743296 2.59828509 7.0402832 4.73388672 C7.60378983 5.28140594 8.16729645 5.82892517 8.74787903 6.39303589 C9.34283676 6.98263092 9.93779449 7.57222595 10.55078125 8.1796875 C11.16898239 8.78886017 11.78718353 9.39803284 12.42411804 10.02566528 C13.72531842 11.31238672 15.02374974 12.60191363 16.31958008 13.89404297 C18.31076886 15.87327926 20.31984808 17.83309886 22.33007812 19.79296875 C23.59229029 21.04572296 24.85339726 22.2995919 26.11328125 23.5546875 C26.71836014 24.14023407 27.32343903 24.72578064 27.94685364 25.32907104 C29.60668945 27.00732422 29.60668945 27.00732422 32 30 C31.70157686 31.34157837 31.36916231 32.67613895 31 34 C32.68585874 36.39810813 32.68585874 36.39810813 35.171875 38.6953125 C36.06390625 39.57574219 36.9559375 40.45617187 37.875 41.36328125 C39.298125 42.73033203 39.298125 42.73033203 40.75 44.125 C41.68328125 45.04410156 42.6165625 45.96320313 43.578125 46.91015625 C48.50997034 51.79312598 48.50997034 51.79312598 54 56 C50.1539082 55.47912301 48.18414597 54.68374771 45.45068359 51.93652344 C44.80005951 51.29205261 44.14943542 50.64758179 43.47909546 49.98358154 C42.79247833 49.28259338 42.10586121 48.58160522 41.3984375 47.859375 C40.32101791 46.78058075 40.32101791 46.78058075 39.22183228 45.67999268 C37.70595878 44.15808231 36.19494398 42.63131923 34.68847656 41.10009766 C32.38699987 38.76218983 30.0700024 36.44060379 27.75 34.12109375 C26.27770023 32.63895956 24.80631516 31.15591607 23.3359375 29.671875 C22.64527191 28.97898376 21.95460632 28.28609253 21.24301147 27.57220459 C17.95631229 24.22041768 15.30077359 21.1234352 13 17 C11.4009936 15.13135178 11.4009936 15.13135178 9.64453125 13.44921875 C9.02255859 12.83369141 8.40058594 12.21816406 7.75976562 11.58398438 C7.11716797 10.95814453 6.47457031 10.33230469 5.8125 9.6875 C4.83120117 8.71973633 4.83120117 8.71973633 3.83007812 7.73242188 C2.22451217 6.15029484 0.6144531 4.5730487 -1 3 C-0.67 2.01 -0.34 1.02 0 0 Z " fill="#3884C6" transform="translate(48,129)"/>
<path d="M0 0 C4.31356813 0.69573679 4.64906685 0.9940525 7.1875 4.25 C8.42588158 6.03530983 9.65369212 7.82796711 10.875 9.625 C11.76894619 10.80908367 12.66906215 11.98852626 13.57421875 13.1640625 C14.50848262 14.40053562 15.44207825 15.63751393 16.375 16.875 C16.83302002 17.46490723 17.29104004 18.05481445 17.76293945 18.66259766 C19.77269861 21.40082198 20.89447874 23.03089846 20.78125 26.484375 C19.875 28.625 19.875 28.625 17.875 29.625 C17.9575 28.7175 18.04 27.81 18.125 26.875 C18.18524799 23.52458592 18.18524799 23.52458592 15.875 21.25 C15.215 20.71375 14.555 20.1775 13.875 19.625 C13.83761719 20.20507812 13.80023438 20.78515625 13.76171875 21.3828125 C13.26422329 27.29422914 12.21363078 31.81864307 8.3125 36.5 C6.875 37.625 6.875 37.625 4.875 37.625 C5.92683613 34.55714462 6.90429627 32.59151855 9.0625 30.125 C11.098117 27.84847371 11.098117 27.84847371 10.82421875 25.46875 C9.44475564 21.33603746 7.03036378 18.14155684 4.5 14.625 C3.51172162 13.23008624 2.52471037 11.83427372 1.5390625 10.4375 C1.07661133 9.78394531 0.61416016 9.13039063 0.13769531 8.45703125 C-1.39049298 6.23979905 -2.78428367 3.95985294 -4.125 1.625 C-3.125 0.625 -3.125 0.625 0 0 Z " fill="#104BD7" transform="translate(72.125,74.375)"/>
<path d="M0 0 C3.38147659 1.44920425 5.45737085 3.37261655 8 6 C8.66 6.33 9.32 6.66 10 7 C9.34 4.69 8.68 2.38 8 0 C12.967064 4.51551273 19.70898414 10.89154077 20.19921875 17.8125 C20.13347656 18.534375 20.06773438 19.25625 20 20 C19.34 20 18.68 20 18 20 C17.731875 20.556875 17.46375 21.11375 17.1875 21.6875 C16.795625 22.450625 16.40375 23.21375 16 24 C15.62875 24.9075 15.2575 25.815 14.875 26.75 C13 29 13 29 11.02734375 29.31640625 C9.0154659 29.31285796 7.00515631 29.16435707 5 29 C5.46403202 25.98379188 6.28413215 24.60722909 8.125 22.0625 C10.22341863 19.27503536 10.22341863 19.27503536 9.90234375 16.73046875 C8.70705589 13.11355875 6.6671923 10.28893743 4.4375 7.25 C0 1.09540971 0 1.09540971 0 0 Z " fill="#1875CB" transform="translate(89,83)"/>
<path d="M0 0 C0.33 0.66 0.66 1.32 1 2 C0.505 2.45375 0.01 2.9075 -0.5 3.375 C-2.22609337 4.87635519 -2.22609337 4.87635519 -2 7 C-1.34 7.33 -0.68 7.66 0 8 C-9.9 17.9 -19.8 27.8 -30 38 C-31 35 -31 35 -30.0625 32.8125 C-29.711875 32.214375 -29.36125 31.61625 -29 31 C-28.34 31 -27.68 31 -27 31 C-26.62875 30.195625 -26.62875 30.195625 -26.25 29.375 C-23.5090336 24.16716384 -20.19301771 19.9467614 -16.015625 15.8203125 C-15.08105469 14.8921875 -14.14648438 13.9640625 -13.18359375 13.0078125 C-12.20583907 12.04676317 -11.22797312 11.08582704 -10.25 10.125 C-9.25604673 9.1410932 -8.26255278 8.15672217 -7.26953125 7.171875 C-4.85082573 4.77665206 -2.42756562 2.38623724 0 0 Z " fill="#308ECB" transform="translate(64,49)"/>
<path d="M0 0 C0 5.94 0 11.88 0 18 C-8.25 18 -16.5 18 -25 18 C-25.33 17.01 -25.66 16.02 -26 15 C-19.07 15 -12.14 15 -5 15 C-4.67 12.69 -4.34 10.38 -4 8 C-4.66 8 -5.32 8 -6 8 C-6 7.34 -6 6.68 -6 6 C-7.98 6 -9.96 6 -12 6 C-12 5.01 -12 4.02 -12 3 C-10.6078125 2.814375 -10.6078125 2.814375 -9.1875 2.625 C-5.53176733 1.90818967 -3.7341392 0 0 0 Z " fill="#09A4F4" transform="translate(130,117)"/>
<path d="M0 0 C10.89 0 21.78 0 33 0 C33.94071796 3.76287183 34.16574658 6.77029327 34.1875 10.625 C34.20167969 11.77226563 34.21585938 12.91953125 34.23046875 14.1015625 C34 17 34 17 32 19 C30.68 18.01 29.36 17.02 28 16 C28.33 15.01 28.66 14.02 29 13 C29 10.03 29 7.06 29 4 C14.15 3.505 14.15 3.505 -1 3 C-0.67 2.01 -0.34 1.02 0 0 Z " fill="#084EF0" transform="translate(96,65)"/>
<path d="M0 0 C9.27317894 0.57957368 17.26619402 10.57365618 23 17 C24.04006887 18.64196057 25.04791074 20.3055078 26 22 C26.98244845 23.34631825 27.97676564 24.68441297 29 26 C26.125 25.75 26.125 25.75 23 25 C21.875 23.0625 21.875 23.0625 21 21 C18.9664052 19.73195434 18.9664052 19.73195434 17 19 C17 18.34 17 17.68 17 17 C16.34 17 15.68 17 15 17 C12.06211087 14.30693497 9.4964747 11.42633439 6.9375 8.375 C4.81418741 5.84567932 2.67147604 3.95223249 0 2 C0 1.34 0 0.68 0 0 Z " fill="#1E5DC0" transform="translate(127,46)"/>
<path d="M0 0 C4.56873613 0.26874918 6.76954897 2.24736111 9.9609375 5.234375 C11 7 11 7 10.9375 9.4140625 C9.75807676 12.66730494 8.13625204 14.26003449 5.625 16.625 C4.83351562 17.38039063 4.04203125 18.13578125 3.2265625 18.9140625 C2.49179688 19.60242188 1.75703125 20.29078125 1 21 C0.46503906 21.57105469 -0.06992188 22.14210938 -0.62109375 22.73046875 C-2.55941282 24.51504014 -4.44131328 24.65423152 -7 25 C-5.68 22.36 -4.36 19.72 -3 17 C-2.34 17 -1.68 17 -1 17 C-0.7525 16.4225 -0.505 15.845 -0.25 15.25 C1.16683317 12.6997003 2.87627537 10.98214299 5 9 C3.7625 7.88625 3.7625 7.88625 2.5 6.75 C0 4 0 4 0 0 Z " fill="#1E4BBE" transform="translate(174,91)"/>
<path d="M0 0 C6.20779573 2.75902032 10.21031932 7.24003323 14.44921875 12.390625 C14.96097656 12.92171875 15.47273438 13.4528125 16 14 C16.66 14 17.32 14 18 14 C18.33 13.34 18.66 12.68 19 12 C20.20205464 13.06716072 21.38632333 14.15438337 22.5625 15.25 C23.55443359 16.15492187 23.55443359 16.15492187 24.56640625 17.078125 C25.03949219 17.71234375 25.51257813 18.3465625 26 19 C25.79439453 19.61939453 25.58878906 20.23878906 25.37695312 20.87695312 C25.25255859 21.57755859 25.12816406 22.27816406 25 23 C26.34519944 25.03797443 26.34519944 25.03797443 28.40234375 26.890625 C29.48999023 27.95410156 29.48999023 27.95410156 30.59960938 29.0390625 C31.37111328 29.76867187 32.14261719 30.49828125 32.9375 31.25 C33.70513672 31.99507812 34.47277344 32.74015625 35.26367188 33.5078125 C37.16510754 35.35019737 39.07720048 37.1799648 41 39 C40.505 39.99 40.505 39.99 40 41 C34.78172368 35.80484727 29.56611611 30.60703128 24.35394287 25.40575504 C21.93389538 22.99093635 19.51292226 20.5770608 17.08984375 18.1652832 C14.30715081 15.39548801 11.52846483 12.62169306 8.75 9.84765625 C7.87504883 8.97786636 7.00009766 8.10807648 6.09863281 7.21192932 C5.29780273 6.41117477 4.49697266 5.61042023 3.671875 4.78540039 C2.9612793 4.0770253 2.25068359 3.36865021 1.51855469 2.6388092 C0 1 0 1 0 0 Z " fill="#3E94CD" transform="translate(23,109)"/>
<path d="M0 0 C2.375 -0.1875 2.375 -0.1875 5 0 C7.24434537 3.36651805 7.20138902 4.21596988 6.9765625 8.10546875 C6.925 9.08837891 6.8734375 10.07128906 6.8203125 11.08398438 C6.75585938 12.10814453 6.69140625 13.13230469 6.625 14.1875 C6.53992188 15.74114258 6.53992188 15.74114258 6.453125 17.32617188 C6.31163334 19.88481271 6.16022134 22.44247484 6 25 C-1.65351583 25.19324454 -9.30727895 25.37073591 -16.96142578 25.53710938 C-19.56697928 25.59562461 -22.17245342 25.65778939 -24.77783203 25.72363281 C-28.51580355 25.8174731 -32.25386103 25.89832322 -35.9921875 25.9765625 C-37.74847977 26.02485703 -37.74847977 26.02485703 -39.54025269 26.0741272 C-40.62122223 26.09429901 -41.70219177 26.11447083 -42.81591797 26.13525391 C-43.77078094 26.15746002 -44.72564392 26.17966614 -45.70944214 26.20254517 C-48 26 -48 26 -50 24 C-48.25 20.125 -48.25 20.125 -46 19 C-46.99 21.475 -46.99 21.475 -48 24 C-30.51 24 -13.02 24 5 24 C5 16.74 5 9.48 5 2 C3.02 2.33 1.04 2.66 -1 3 C-0.67 2.01 -0.34 1.02 0 0 Z " fill="#3182BB" transform="translate(126,112)"/>
<path d="M0 0 C4.17443363 3.50074982 8.3145494 6.97950843 12 11 C12 11.66 12 12.32 12 13 C12.99 13.33 13.98 13.66 15 14 C16.35827971 15.64639965 17.69254251 17.31295807 19 19 C19.66 19.33 20.32 19.66 21 20 C21 20.99 21 21.98 21 23 C17.01583909 22.45634458 15.21636772 20.56534815 12.453125 17.74609375 C11.60878906 16.89208984 10.76445313 16.03808594 9.89453125 15.15820312 C9.02183594 14.26037109 8.14914063 13.36253906 7.25 12.4375 C6.36183594 11.53580078 5.47367187 10.63410156 4.55859375 9.70507812 C2.36551685 7.47662902 0.17973956 5.24148407 -2 3 C-1.34 2.67 -0.68 2.34 0 2 C0 1.34 0 0.68 0 0 Z " fill="#2876D0" transform="translate(80,160)"/>
<path d="M0 0 C0 7.26 0 14.52 0 22 C-17.49 22 -34.98 22 -53 22 C-52.505 20.515 -52.505 20.515 -52 19 C-51.67 19.66 -51.34 20.32 -51 21 C-34.5 21 -18 21 -1 21 C-1.33 15.72 -1.66 10.44 -2 5 C-1.67 4.34 -1.34 3.68 -1 3 C-2.98 3.33 -4.96 3.66 -7 4 C-7 3.01 -7 2.02 -7 1 C-4 0 -4 0 0 0 Z " fill="#0F87D9" transform="translate(131,114)"/>
<path d="M0 0 C0.58120605 0.23082275 1.16241211 0.46164551 1.76123047 0.69946289 C1.04708984 1.09262695 0.33294922 1.48579102 -0.40283203 1.89086914 C-3.51004852 3.87246864 -5.97640443 6.06533856 -8.61376953 8.63696289 C-9.50837891 9.49161133 -10.40298828 10.34625977 -11.32470703 11.22680664 C-11.95634766 12.0427832 -12.58798828 12.85875977 -13.23876953 13.69946289 C-12.91578182 15.03534007 -12.58259089 16.36879548 -12.23876953 17.69946289 C-14.10986328 20.05883789 -14.10986328 20.05883789 -16.67626953 22.44946289 C-17.52060547 23.24868164 -18.36494141 24.04790039 -19.23486328 24.87133789 C-19.89615234 25.47461914 -20.55744141 26.07790039 -21.23876953 26.69946289 C-22.22876953 26.36946289 -23.21876953 26.03946289 -24.23876953 25.69946289 C-23.57876953 24.37946289 -22.91876953 23.05946289 -22.23876953 21.69946289 C-21.57876953 21.69946289 -20.91876953 21.69946289 -20.23876953 21.69946289 C-20.07119141 20.88348633 -19.90361328 20.06750977 -19.73095703 19.22680664 C-17.61012875 14.21343506 -14.20448242 11.04489514 -10.36376953 7.26196289 C-9.64318359 6.5175293 -8.92259766 5.7730957 -8.18017578 5.00610352 C-7.48021484 4.30807617 -6.78025391 3.61004883 -6.05908203 2.89086914 C-5.10412842 1.93482788 -5.10412842 1.93482788 -4.12988281 0.95947266 C-2.23876953 -0.30053711 -2.23876953 -0.30053711 0 0 Z " fill="#307CC3" transform="translate(100.23876953125,15.300537109375)"/>
<path d="M0 0 C3.47882203 0.58403582 5.15365555 1.76919588 7.63671875 4.23828125 C8.29607422 4.89376953 8.95542969 5.54925781 9.63476562 6.22460938 C10.65086914 7.25811523 10.65086914 7.25811523 11.6875 8.3125 C12.37650391 8.98990234 13.06550781 9.66730469 13.77539062 10.36523438 C14.43087891 11.02458984 15.08636719 11.68394531 15.76171875 12.36328125 C16.35944092 12.96438721 16.95716309 13.56549316 17.57299805 14.18481445 C19.1096622 16.13949332 19.59203404 17.5699419 20 20 C15.74257863 19.52695318 13.74294902 17.1136178 11 14 C10.67 13.01 10.34 12.02 10 11 C8.68596724 10.29605388 7.3479743 9.63654342 6 9 C1.23168317 5.78415842 1.23168317 5.78415842 0.1875 2.25 C0.125625 1.5075 0.06375 0.765 0 0 Z " fill="#2B95CB" transform="translate(22,104)"/>
<path d="M0 0 C4.62 0 9.24 0 14 0 C14 7.59 14 15.18 14 23 C12.35 23.33 10.7 23.66 9 24 C6 20.25 6 20.25 6 18 C6.639375 18.185625 7.27875 18.37125 7.9375 18.5625 C8.9584375 18.7790625 8.9584375 18.7790625 10 19 C11.44388571 17.78571012 11.44388571 17.78571012 11.09765625 14.18359375 C11.09098089 12.60153318 11.07901875 11.01948841 11.0625 9.4375 C11.05798828 8.63119141 11.05347656 7.82488281 11.04882812 6.99414062 C11.03700518 4.99606244 11.01906914 2.99802217 11 1 C7.37 1 3.74 1 0 1 C0 0.67 0 0.34 0 0 Z " fill="#0F43B9" transform="translate(118,64)"/>
<path d="M0 0 C6.6 0 13.2 0 20 0 C20 0.66 20 1.32 20 2 C22.97 2.495 22.97 2.495 26 3 C26 3.33 26 3.66 26 4 C16.43 4 6.86 4 -3 4 C-1.68 3.34 -0.36 2.68 1 2 C0.67 1.34 0.34 0.68 0 0 Z " fill="#0D8AEA" transform="translate(98,120)"/>
<path d="M0 0 C4.43230071 1.47743357 6.96248976 4.95110145 9 9 C8.9375 11.875 8.9375 11.875 8 14 C7.01 14.495 7.01 14.495 6 15 C6.0825 14.0925 6.165 13.185 6.25 12.25 C6.31024799 8.89958592 6.31024799 8.89958592 4 6.625 C3.34 6.08875 2.68 5.5525 2 5 C1.96261719 5.58007812 1.92523438 6.16015625 1.88671875 6.7578125 C1.38922329 12.66922914 0.33863078 17.19364307 -3.5625 21.875 C-5 23 -5 23 -7 23 C-5.94816387 19.93214462 -4.97070373 17.96651855 -2.8125 15.5 C-0.72942422 13.1762496 -0.72942422 13.1762496 -1.125 10.5 C-2.01247155 7.964367 -2.94165563 5.46947019 -4 3 C-3.01 3.33 -2.02 3.66 -1 4 C-0.67 2.68 -0.34 1.36 0 0 Z " fill="#175CC5" transform="translate(84,89)"/>
<path d="M0 0 C2.8125 0.0625 2.8125 0.0625 6 1 C7.4926041 3.27444434 8.14242011 5.37961699 9 8 C8.21625 8.763125 7.4325 9.52625 6.625 10.3125 C3.92742283 12.90891805 3.92742283 12.90891805 2 16 C0.68 16 -0.64 16 -2 16 C-0.125 11.25 -0.125 11.25 1 9 C1.14375422 5.62177584 1.07536348 3.22609045 0 0 Z " fill="#0C78EB" transform="translate(99,94)"/>
<path d="M0 0 C18.15 0 36.3 0 55 0 C55 0.33 55 0.66 55 1 C37.84 1 20.68 1 3 1 C3.99 2.98 4.98 4.96 6 7 C5.67 7.99 5.34 8.98 5 10 C4.15801693 8.90241493 3.32669329 7.79664683 2.5 6.6875 C2.0359375 6.07261719 1.571875 5.45773438 1.09375 4.82421875 C0 3 0 3 0 0 Z " fill="#2E79B9" transform="translate(76,63)"/>
<path d="M0 0 C4.13718891 1.79046411 5.66320139 4.16097371 8 8 C8.66 7.67 9.32 7.34 10 7 C9.67 6.34 9.34 5.68 9 5 C12.25094199 6.04494564 13.56873286 7.59135491 15.25 10.4375 C17 14 17 14 17 17 C12.99635363 15.7015201 11.40477206 14.38854245 9 11 C8.01 10.67 7.02 10.34 6 10 C4.39453125 7.71484375 4.39453125 7.71484375 2.8125 4.9375 C2.28269531 4.01839844 1.75289063 3.09929687 1.20703125 2.15234375 C0.60955078 1.08693359 0.60955078 1.08693359 0 0 Z " fill="#1285E1" transform="translate(82,73)"/>
<path d="M0 0 C0.66 0.33 1.32 0.66 2 1 C-1.27094033 6.45156722 -5.41853326 10.61869443 -10 15 C-11.32 14.34 -12.64 13.68 -14 13 C-12.04468135 11.0177733 -10.08594334 9.03914884 -8.125 7.0625 C-7.56941406 6.49853516 -7.01382813 5.93457031 -6.44140625 5.35351562 C-2.2265625 1.11328125 -2.2265625 1.11328125 0 0 Z " fill="#1D6BC4" transform="translate(123,159)"/>
<path d="M0 0 C0.33 0 0.66 0 1 0 C1.05386629 2.12472576 1.09273071 4.24983652 1.125 6.375 C1.14820313 7.55835937 1.17140625 8.74171875 1.1953125 9.9609375 C1 13 1 13 -1 15 C-2.32 14.01 -3.64 13.02 -5 12 C-4.34 8.37 -3.68 4.74 -3 1 C-2.01 1.33 -1.02 1.66 0 2 C0 1.34 0 0.68 0 0 Z " fill="#0848E7" transform="translate(129,69)"/>
<path d="M0 0 C3.68069887 1.53643852 5.98775204 3.78150945 8.75 6.625 C9.54921875 7.44226563 10.3484375 8.25953125 11.171875 9.1015625 C12.07679687 10.04128906 12.07679687 10.04128906 13 11 C9.22201924 11 7.01098726 10.85687334 4.078125 8.37109375 C3.47484375 7.73300781 2.8715625 7.09492188 2.25 6.4375 C1.63640625 5.79683594 1.0228125 5.15617188 0.390625 4.49609375 C-0.29773437 3.75552734 -0.29773437 3.75552734 -1 3 C-0.67 2.01 -0.34 1.02 0 0 Z " fill="#3A90CB" transform="translate(48,129)"/>
<path d="M0 0 C2.25 -0.375 2.25 -0.375 5 0 C7.125 2.75 7.125 2.75 9 6 C9.98866506 7.34175973 10.9838154 8.67896002 12 10 C9.125 9.75 9.125 9.75 6 9 C4.875 7.0625 4.875 7.0625 4 5 C1.9664052 3.73195434 1.9664052 3.73195434 0 3 C0 2.01 0 1.02 0 0 Z " fill="#164FCC" transform="translate(144,62)"/>
<path d="M0 0 C4.50169647 0.72608008 4.98327764 1.41677015 7.6875 4.875 C9.69735317 7.68971428 11.40355871 10.4954956 12.875 13.625 C10.625 13.6875 10.625 13.6875 7.875 12.625 C6.7090386 10.35833623 5.84079496 8.03654352 4.921875 5.66015625 C4.00604702 3.32553495 4.00604702 3.32553495 1.125 2.5625 C0.3825 2.583125 -0.36 2.60375 -1.125 2.625 C-1.455 3.285 -1.785 3.945 -2.125 4.625 C-2.785 3.635 -3.445 2.645 -4.125 1.625 C-3.125 0.625 -3.125 0.625 0 0 Z " fill="#2151AE" transform="translate(72.125,74.375)"/>
<path d="M0 0 C0.99 0.495 0.99 0.495 2 1 C2 1.66 2 2.32 2 3 C2.99 3.33 3.98 3.66 5 4 C6.35827971 5.64639965 7.69254251 7.31295807 9 9 C9.66 9.33 10.32 9.66 11 10 C11 10.99 11 11.98 11 13 C6.35048239 12.14271367 3.77635868 9.73905891 1 6 C0.125 2.625 0.125 2.625 0 0 Z " fill="#206CD0" transform="translate(90,170)"/>
<path d="M0 0 C2.12472576 -0.05386629 4.24983652 -0.09273071 6.375 -0.125 C7.55835937 -0.14820312 8.74171875 -0.17140625 9.9609375 -0.1953125 C13 0 13 0 15 2 C14 3 14 3 10.62109375 3.09765625 C9.22652923 3.09098369 7.83198257 3.07902532 6.4375 3.0625 C5.72658203 3.05798828 5.01566406 3.05347656 4.28320312 3.04882812 C2.52209987 3.03700864 0.76103964 3.01907263 -1 3 C-0.67 2.01 -0.34 1.02 0 0 Z " fill="#0779F2" transform="translate(85,120)"/>
<path d="M0 0 C2.10353495 -0.0810206 4.20795952 -0.13919907 6.3125 -0.1875 C7.48425781 -0.22230469 8.65601562 -0.25710937 9.86328125 -0.29296875 C13 0 13 0 16 3 C10.39 3 4.78 3 -1 3 C-0.67 2.01 -0.34 1.02 0 0 Z " fill="#0B77EF" transform="translate(96,65)"/>
<path d="M0 0 C3.16115776 1.36983503 3.9927092 1.9890638 6 5 C5.625 8.1875 5.625 8.1875 5 11 C3.0625 10.1875 3.0625 10.1875 1 9 C-0.06546953 5.8035914 -0.07427838 3.34252724 0 0 Z " fill="#0C66EF" transform="translate(85,93)"/>
<path d="M0 0 C2.375 -0.1875 2.375 -0.1875 5 0 C7.24434537 3.36651805 7.20138902 4.21596988 6.9765625 8.10546875 C6.89921875 9.57983398 6.89921875 9.57983398 6.8203125 11.08398438 C6.75585938 12.10814453 6.69140625 13.13230469 6.625 14.1875 C6.56828125 15.22326172 6.5115625 16.25902344 6.453125 17.32617188 C6.31163334 19.88481271 6.16022134 22.44247484 6 25 C5.67 25 5.34 25 5 25 C5 17.41 5 9.82 5 2 C3.02 2.33 1.04 2.66 -1 3 C-0.67 2.01 -0.34 1.02 0 0 Z " fill="#247EAE" transform="translate(126,112)"/>
<path d="M0 0 C1.0209375 0.2165625 1.0209375 0.2165625 2.0625 0.4375 C-4.08784169 7.92041572 -4.08784169 7.92041572 -7.9375 10.4375 C-7.9375 9.7775 -7.9375 9.1175 -7.9375 8.4375 C-8.5975 8.1075 -9.2575 7.7775 -9.9375 7.4375 C-3.86310175 0.57535558 -3.86310175 0.57535558 0 0 Z " fill="#2574C2" transform="translate(95.9375,21.5625)"/>
<path d="M0 0 C7.705118 3.42449689 14.51979303 10.31954324 18 18 C13.46334263 14.2698595 9.22058878 10.32946434 5.0625 6.1875 C4.31746216 5.44922974 4.31746216 5.44922974 3.55737305 4.69604492 C0 1.12375366 0 1.12375366 0 0 Z " fill="#4BA1CE" transform="translate(23,109)"/>
<path d="M0 0 C2.475 0.99 2.475 0.99 5 2 C3.35 3.65 1.7 5.3 0 7 C0 6.34 0 5.68 0 5 C-3.36591866 6.44253657 -5.51047079 8.33264727 -8 11 C-8.66 10.67 -9.32 10.34 -10 10 C-6.7 6.7 -3.4 3.4 0 0 Z " fill="#316CB3" transform="translate(132,147)"/>
<path d="M0 0 C0.33 0 0.66 0 1 0 C1 1.65 1 3.3 1 5 C0.34 5 -0.32 5 -1 5 C-1.268125 5.556875 -1.53625 6.11375 -1.8125 6.6875 C-2.204375 7.450625 -2.59625 8.21375 -3 9 C-3.37125 9.9075 -3.7425 10.815 -4.125 11.75 C-6 14 -6 14 -7.97265625 14.31640625 C-9.9845341 14.31285796 -11.99484369 14.16435707 -14 14 C-13.67 12.68 -13.34 11.36 -13 10 C-12.67 10.66 -12.34 11.32 -12 12 C-9.47266765 12.65555119 -9.47266765 12.65555119 -7 13 C-6.5978125 11.6078125 -6.5978125 11.6078125 -6.1875 10.1875 C-5.09022755 7.24218975 -4.46642831 5.84982123 -2 4 C-1.34 4 -0.68 4 0 4 C0 2.68 0 1.36 0 0 Z " fill="#296EB7" transform="translate(108,98)"/>
<path d="M0 0 C5.61 0 11.22 0 17 0 C14 3 14 3 10.86328125 3.29296875 C9.69152344 3.25816406 8.51976563 3.22335938 7.3125 3.1875 C5.54326172 3.14689453 5.54326172 3.14689453 3.73828125 3.10546875 C2.83464844 3.07066406 1.93101563 3.03585938 1 3 C0.67 2.01 0.34 1.02 0 0 Z " fill="#0B97F1" transform="translate(104,132)"/>
<path d="M0 0 C0.4125 0.45375 0.825 0.9075 1.25 1.375 C3.06408095 3.05950374 4.75285627 3.99265971 7 5 C6.34 5 5.68 5 5 5 C5 7.31 5 9.62 5 12 C3 10.1875 3 10.1875 1 8 C1 7.01 1 6.02 1 5 C0.34 5 -0.32 5 -1 5 C-1.33 3.68 -1.66 2.36 -2 1 C-1.34 0.67 -0.68 0.34 0 0 Z " fill="#0A52E6" transform="translate(79,84)"/>
<path d="M0 0 C-0.33 0.66 -0.66 1.32 -1 2 C-3.12472576 2.05386629 -5.24983652 2.09273071 -7.375 2.125 C-9.15003906 2.15980469 -9.15003906 2.15980469 -10.9609375 2.1953125 C-14 2 -14 2 -16 0 C-11.34755986 -2.32622007 -4.9262419 -0.98524838 0 0 Z " fill="#0EA2F0" transform="translate(114,80)"/>
<path d="M0 0 C4.2742558 1.5830577 6.26531794 4.50568404 9 8 C7.25 8.75 7.25 8.75 5 9 C2.23733334 6.94773334 1.1594602 5.58468741 0.25 2.25 C0.1675 1.5075 0.085 0.765 0 0 Z " fill="#1B62CD" transform="translate(119,36)"/>
<path d="M0 0 C1.0725 0.103125 2.145 0.20625 3.25 0.3125 C1.17856799 4.34634128 -0.71615872 6.24106799 -4.75 8.3125 C-4.75 5.3125 -4.75 5.3125 -3.25 3.625 C-2.5075 2.9753125 -2.5075 2.9753125 -1.75 2.3125 C-2.41 2.3125 -3.07 2.3125 -3.75 2.3125 C-3.75 2.9725 -3.75 3.6325 -3.75 4.3125 C-5.07 4.6425 -6.39 4.9725 -7.75 5.3125 C-5.36605526 1.49818842 -4.61542062 0.38461838 0 0 Z " fill="#2E5FBD" transform="translate(157.75,124.6875)"/>
<path d="M0 0 C-0.33 1.32 -0.66 2.64 -1 4 C-4.3 3.67 -7.6 3.34 -11 3 C-11 2.34 -11 1.68 -11 1 C-3.375 0 -3.375 0 0 0 Z " fill="#0787F0" transform="translate(115,76)"/>
<path d="M0 0 C1.51400391 0.01740234 1.51400391 0.01740234 3.05859375 0.03515625 C4.07050781 0.04417969 5.08242187 0.05320312 6.125 0.0625 C7.29869141 0.07990234 7.29869141 0.07990234 8.49609375 0.09765625 C8.49609375 1.08765625 8.49609375 2.07765625 8.49609375 3.09765625 C-0.07533482 3.38337054 -0.07533482 3.38337054 -3.50390625 1.09765625 C-2.50390625 0.09765625 -2.50390625 0.09765625 0 0 Z " fill="#0861EE" transform="translate(111.50390625,64.90234375)"/>
<path d="M0 0 C0.89310101 2.67930304 1.44761501 5.23807505 2 8 C2.33 8.99 2.66 9.98 3 11 C0.53199953 9.84826645 -1.04783565 8.95216435 -3 7 C-2.67028521 3.70285207 -2.3773161 2.3773161 0 0 Z " fill="#229DDD" transform="translate(20,95)"/>
<path d="M0 0 C1.9375 0.5625 1.9375 0.5625 4 2 C4.75 5.625 4.75 5.625 5 9 C2.69 7.02 0.38 5.04 -2 3 C-1.34 2.01 -0.68 1.02 0 0 Z " fill="#2568C0" transform="translate(115,31)"/>
<path d="M0 0 C1.98 0.495 1.98 0.495 4 1 C3.67 2.65 3.34 4.3 3 6 C1.68 6.33 0.36 6.66 -1 7 C-0.67 4.69 -0.34 2.38 0 0 Z " fill="#2075CC" transform="translate(115,75)"/>
<path d="M0 0 C0 1.98 0 3.96 0 6 C-0.66 5.67 -1.32 5.34 -2 5 C-1.67 4.34 -1.34 3.68 -1 3 C-2.98 3.33 -4.96 3.66 -7 4 C-7 3.01 -7 2.02 -7 1 C-4 0 -4 0 0 0 Z " fill="#139CDE" transform="translate(131,114)"/>
<path d="M0 0 C0.042721 1.66611905 0.04063832 3.33382885 0 5 C-1 6 -1 6 -3.5625 6.0625 C-4.7690625 6.0315625 -4.7690625 6.0315625 -6 6 C-5.75 4.125 -5.75 4.125 -5 2 C-1.8 0 -1.8 0 0 0 Z " fill="#1456C4" transform="translate(139,143)"/>
<path d="M0 0 C2.64752004 2.57784846 4.94432065 4.91648098 7 8 C4 8 4 8 1.3125 5.5 C0.549375 4.675 -0.21375 3.85 -1 3 C-0.67 2.01 -0.34 1.02 0 0 Z " fill="#2389CF" transform="translate(48,129)"/>
<path d="M0 0 C4.0042343 3.49087093 5.62671065 5.64951939 6 11 C4.5 9.6875 4.5 9.6875 3 8 C3 7.01 3 6.02 3 5 C2.01 4.67 1.02 4.34 0 4 C0 2.68 0 1.36 0 0 Z " fill="#186FC6" transform="translate(102,90)"/>
<path d="M0 0 C0.99 0.33 1.98 0.66 3 1 C2 4 2 4 -0.375 5.1875 C-3 6 -3 6 -6 6 C-4.02 4.02 -2.04 2.04 0 0 Z " fill="#1560C5" transform="translate(130,151)"/>
<path d="M0 0 C1.98 1.65 3.96 3.3 6 5 C5.01 5.495 5.01 5.495 4 6 C4 6.99 4 7.98 4 9 C3.01 8.67 2.02 8.34 1 8 C1.33 7.01 1.66 6.02 2 5 C1.12085312 2.3430809 1.12085312 2.3430809 0 0 Z " fill="#3377C2" transform="translate(105,19)"/>
<path d="M0 0 C0.33 0.99 0.66 1.98 1 3 C-1.475 4.485 -1.475 4.485 -4 6 C-4.33 5.01 -4.66 4.02 -5 3 C-3.35 2.01 -1.7 1.02 0 0 Z " fill="#1964CC" transform="translate(108,173)"/>
<path d="M0 0 C0.66 0 1.32 0 2 0 C2 1.32 2 2.64 2 4 C-0.31 4.33 -2.62 4.66 -5 5 C-4.67 4.01 -4.34 3.02 -4 2 C-2.68 2 -1.36 2 0 2 C0 1.34 0 0.68 0 0 Z " fill="#1850C7" transform="translate(160,121)"/>
<path d="M0 0 C0.66 0 1.32 0 2 0 C2.33 1.32 2.66 2.64 3 4 C3.99 4 4.98 4 6 4 C6.33 3.34 6.66 2.68 7 2 C7.33 2.99 7.66 3.98 8 5 C6.35 5.33 4.7 5.66 3 6 C0 2.25 0 2.25 0 0 Z " fill="#1E49AC" transform="translate(124,82)"/>
<path d="M0 0 C2.97 0.495 2.97 0.495 6 1 C6.12375 1.61875 6.2475 2.2375 6.375 2.875 C6.87197356 5.19120832 6.87197356 5.19120832 9 7 C6 7 6 7 4.39453125 5.46875 C3.87246094 4.8190625 3.35039062 4.169375 2.8125 3.5 C2.28269531 2.8503125 1.75289062 2.200625 1.20703125 1.53125 C0.80871094 1.0259375 0.41039062 0.520625 0 0 Z " fill="#1D61B0" transform="translate(151,71)"/>
<path d="M0 0 C2 1.3125 2 1.3125 4 3 C4 3.99 4 4.98 4 6 C2.0625 5.6875 2.0625 5.6875 0 5 C-0.33 4.01 -0.66 3.02 -1 2 C-0.67 1.34 -0.34 0.68 0 0 Z " fill="#2389D1" transform="translate(76,156)"/>
<path d="M0 0 C4.67692308 1.47692308 4.67692308 1.47692308 6.3125 4.125 C6.539375 4.74375 6.76625 5.3625 7 6 C4 6 4 6 1.8125 4.125 C0 2 0 2 0 0 Z " fill="#2184CE" transform="translate(56,139)"/>
<path d="M0 0 C0.66 0 1.32 0 2 0 C2 1.98 2 3.96 2 6 C0.68 5.67 -0.64 5.34 -2 5 C-2 4.01 -2 3.02 -2 2 C-1.34 2 -0.68 2 0 2 C0 1.34 0 0.68 0 0 Z " fill="#0763EC" transform="translate(79,110)"/>
<path d="M0 0 C2.97 0.495 2.97 0.495 6 1 C6 1.99 6 2.98 6 4 C4.35 3.67 2.7 3.34 1 3 C0.67 2.01 0.34 1.02 0 0 Z " fill="#0A78F5" transform="translate(99,94)"/>
<path d="M0 0 C0.66 0.66 1.32 1.32 2 2 C1.34 2 0.68 2 0 2 C0 3.32 0 4.64 0 6 C-1.65 6.33 -3.3 6.66 -5 7 C-4.34 5.68 -3.68 4.36 -3 3 C-2.34 3 -1.68 3 -1 3 C-0.67 2.01 -0.34 1.02 0 0 Z " fill="#2394D0" transform="translate(33,82)"/>
<path d="M0 0 C3.36720387 1.39332574 4.9859524 2.9789286 7 6 C6.01 6.495 6.01 6.495 5 7 C3.29115995 5.37660195 1.62553283 3.70680947 0 2 C0 1.34 0 0.68 0 0 Z " fill="#1150C9" transform="translate(156,73)"/>
<path d="M0 0 C0.66 0.33 1.32 0.66 2 1 C-1.465 3.97 -1.465 3.97 -5 7 C-5.33 5.68 -5.66 4.36 -6 3 C-5.195625 2.690625 -4.39125 2.38125 -3.5625 2.0625 C-1.10919595 1.23664655 -1.10919595 1.23664655 0 0 Z " fill="#3189C1" transform="translate(62,56)"/>
<path d="M0 0 C-0.33 0.99 -0.66 1.98 -1 3 C-4.3 2.67 -7.6 2.34 -11 2 C-11 1.67 -11 1.34 -11 1 C-9.54182203 0.83197949 -8.0834516 0.66562857 -6.625 0.5 C-5.81289062 0.4071875 -5.00078125 0.314375 -4.1640625 0.21875 C-2 0 -2 0 0 0 Z " fill="#0AA2FB" transform="translate(123,132)"/>
<path d="M0 0 C0.66 1.32 1.32 2.64 2 4 C0.68 5.32 -0.64 6.64 -2 8 C-2.66 7.67 -3.32 7.34 -4 7 C-2.68 4.69 -1.36 2.38 0 0 Z " fill="#1448C8" transform="translate(171,108)"/>
<path d="M0 0 C2.62187494 1.04874998 3.79371361 1.64931313 5.25 4.125 C5.4975 4.74375 5.745 5.3625 6 6 C4.35 5.67 2.7 5.34 1 5 C0.67 3.35 0.34 1.7 0 0 Z " fill="#1353C7" transform="translate(79,82)"/>
<path d="M0 0 C0.99 0.495 0.99 0.495 2 1 C2.33 1.99 2.66 2.98 3 4 C3.66 4 4.32 4 5 4 C5.33 4.99 5.66 5.98 6 7 C3 7 3 7 1 6 C0.375 2.9375 0.375 2.9375 0 0 Z " fill="#0E93E6" transform="translate(81,67)"/>
</svg>
