<svg width="75" height="75" viewBox="0 0 75 75" fill="none" xmlns="http://www.w3.org/2000/svg">
<ellipse cx="34.5001" cy="36.5" rx="31.3158" ry="29.0789" fill="white"/>
<path d="M37.2961 0.710571C16.9125 0.710571 1.5066 18.0461 0.388184 37.6185C0.388184 58.0032 16.9128 74.5264 37.2961 74.5264C57.6811 74.5264 74.204 58.0032 74.204 37.6185C74.204 17.2367 57.6811 0.71259 37.2955 0.71259L37.2961 0.710571ZM54.2215 53.9427C53.5604 55.0269 52.1411 55.3706 51.057 54.7051C42.3914 49.412 31.4828 48.2131 18.6357 51.1484C18.0408 51.2838 17.4164 51.1774 16.9 50.8526C16.3835 50.5278 16.0171 50.0111 15.8814 49.4163C15.8138 49.1218 15.8049 48.8169 15.8553 48.519C15.9057 48.2211 16.0144 47.936 16.1751 47.6802C16.3358 47.4243 16.5454 47.2027 16.7918 47.0279C17.0383 46.8531 17.3169 46.7287 17.6115 46.6618C31.6711 43.4496 43.7304 44.8325 53.4591 50.7782C54.5433 51.4436 54.887 52.8585 54.2215 53.9427ZM58.739 43.8931C57.9057 45.2469 56.1341 45.6745 54.7812 44.8415C44.8605 38.7436 29.7377 36.9775 18.0036 40.5394C16.4818 40.999 14.8745 40.1415 14.4126 38.6222C13.9541 37.1003 14.8123 35.496 16.3315 35.0335C29.7351 30.9661 46.3985 32.9364 57.7915 39.9373C59.1444 40.7706 59.572 42.5419 58.739 43.8931ZM59.1268 33.4283C47.2315 26.3627 27.606 25.7128 16.2491 29.1602C14.4253 29.7133 12.4966 28.6836 11.9441 26.8598C11.3913 25.0352 12.4199 23.1079 14.2451 22.5534C27.2819 18.5956 48.9549 19.3606 62.6498 27.4907C64.2939 28.4642 64.8314 30.5829 63.8574 32.221C62.888 33.8616 60.7634 34.4023 59.1285 33.4283H59.1268Z" fill="#1ED760"/>
</svg>
